<svg xmlns="http://www.w3.org/2000/svg" viewBox="0 0 128 128"><rect width="128" height="128" fill="#DCEAF7"/><circle cx="64" cy="25" r="11" fill="#2E2A26"/><path d="M22 128 C22 103 41 92 64 92 C87 92 106 103 106 128 Z" fill="#E57373"/><path d="M55 78 H73 V94 C67 99 61 99 55 94 Z" fill="#A86F45"/><path d="M55 86 C61 90 67 90 73 86 V82 H55 Z" fill="#000" opacity="0.08"/><circle cx="41" cy="63" r="5.5" fill="#A86F45"/><circle cx="87" cy="63" r="5.5" fill="#A86F45"/><ellipse cx="64" cy="60" rx="23" ry="25" fill="#A86F45"/><path d="M40 60 C38 38 51 31 64 31 C78 31 91 39 88 60 C85 51 77 45 64 45 C53 45 45 50 40 60 Z" fill="#2E2A26"/><circle cx="55" cy="62" r="2.6" fill="#2B2B2B"/><circle cx="73" cy="62" r="2.6" fill="#2B2B2B"/><circle cx="49" cy="70" r="3.6" fill="#F29B9B" opacity="0.45"/><circle cx="79" cy="70" r="3.6" fill="#F29B9B" opacity="0.45"/><path d="M57 72 Q64 78.5 71 72" fill="none" stroke="#2B2B2B" stroke-width="2.2" stroke-linecap="round"/></svg>
