<svg xmlns="http://www.w3.org/2000/svg" viewBox="0 0 128 128"><rect width="128" height="128" fill="#DCEFD9"/><path d="M37 62 C34 36 49 28 64 28 C80 28 94 37 91 62 L94 100 C86 105 78 101 77 92 L51 92 C50 101 42 105 34 100 Z" fill="#A0442C"/><path d="M22 128 C22 103 41 92 64 92 C87 92 106 103 106 128 Z" fill="#455A64"/><path d="M55 78 H73 V94 C67 99 61 99 55 94 Z" fill="#F2C9A0"/><path d="M55 86 C61 90 67 90 73 86 V82 H55 Z" fill="#000" opacity="0.08"/><circle cx="41" cy="63" r="5.5" fill="#F2C9A0"/><circle cx="87" cy="63" r="5.5" fill="#F2C9A0"/><ellipse cx="64" cy="60" rx="23" ry="25" fill="#F2C9A0"/><path d="M40 62 C37 39 51 30 64 30 C78 30 91 39 88 62 C84 54 79 49 72 47 C68 52 58 54 48 52 C44 55 42 58 40 62 Z" fill="#A0442C"/><circle cx="55" cy="62" r="2.6" fill="#2B2B2B"/><circle cx="73" cy="62" r="2.6" fill="#2B2B2B"/><circle cx="49" cy="70" r="3.6" fill="#F29B9B" opacity="0.45"/><circle cx="79" cy="70" r="3.6" fill="#F29B9B" opacity="0.45"/><path d="M57 72 Q64 78.5 71 72" fill="none" stroke="#2B2B2B" stroke-width="2.2" stroke-linecap="round"/><g fill="none" stroke="#2B2B2B" stroke-width="1.8"><circle cx="55" cy="62" r="7"/><circle cx="73" cy="62" r="7"/><path d="M62 62 H66"/></g></svg>
