<svg xmlns="http://www.w3.org/2000/svg" viewBox="0 0 128 128"><rect width="128" height="128" fill="#F8E8A8"/><path d="M22 128 C22 103 41 92 64 92 C87 92 106 103 106 128 Z" fill="#26A69A"/><path d="M55 78 H73 V94 C67 99 61 99 55 94 Z" fill="#7A4B2A"/><path d="M55 86 C61 90 67 90 73 86 V82 H55 Z" fill="#000" opacity="0.08"/><circle cx="41" cy="63" r="5.5" fill="#7A4B2A"/><circle cx="87" cy="63" r="5.5" fill="#7A4B2A"/><ellipse cx="64" cy="60" rx="23" ry="25" fill="#7A4B2A"/><path d="M42 64 C43 80 52 86 64 86 C76 86 85 80 86 64 C83 72 78 76 72 76 C68 73 60 73 56 76 C50 76 45 72 42 64 Z" fill="#1F1F1F"/><circle cx="55" cy="62" r="2.6" fill="#2B2B2B"/><circle cx="73" cy="62" r="2.6" fill="#2B2B2B"/><circle cx="49" cy="70" r="3.6" fill="#F29B9B" opacity="0.45"/><circle cx="79" cy="70" r="3.6" fill="#F29B9B" opacity="0.45"/><path d="M57 72 Q64 78.5 71 72" fill="none" stroke="#F3E6DA" stroke-width="2.2" stroke-linecap="round"/><g fill="none" stroke="#2B2B2B" stroke-width="1.8"><circle cx="55" cy="62" r="7"/><circle cx="73" cy="62" r="7"/><path d="M62 62 H66"/></g></svg>
