<svg width="596" height="136" viewBox="0 0 596 136" fill="none" xmlns="http://www.w3.org/2000/svg">
<path d="M174.904 107.712C167.704 107.712 161.176 106.128 155.32 102.96C149.464 99.792 144.856 95.424 141.496 89.856C138.136 84.288 136.456 78.048 136.456 71.136C136.456 64.128 138.136 57.888 141.496 52.416C144.952 46.848 149.608 42.48 155.464 39.312C161.32 36.144 167.896 34.56 175.192 34.56C180.664 34.56 185.656 35.52 190.168 37.44C193.599 38.7982 196.737 40.6886 199.583 43.1112C201.234 44.5167 201.186 47.0139 199.653 48.547L191.286 56.9141C189.662 58.5378 187.028 58.399 185.091 57.1667C184.287 56.6555 183.435 56.2239 182.536 55.872C180.424 55.008 177.976 54.576 175.192 54.576C172.024 54.576 169.192 55.296 166.696 56.736C164.296 58.08 162.376 60 160.936 62.496C159.592 64.896 158.92 67.728 158.92 70.992C158.92 74.256 159.592 77.136 160.936 79.632C162.376 82.128 164.344 84.096 166.84 85.536C169.336 86.976 172.12 87.696 175.192 87.696C178.072 87.696 180.616 87.216 182.824 86.256C183.788 85.8143 184.693 85.3054 185.539 84.7294C187.444 83.4325 190.097 83.3189 191.718 84.9567L199.967 93.2913C201.488 94.8273 201.527 97.3121 199.898 98.7325C196.974 101.282 193.779 103.315 190.312 104.832C185.704 106.752 180.568 107.712 174.904 107.712Z" fill="#0E8187"/>
<path d="M209.301 106.128C207.092 106.128 205.301 104.337 205.301 102.128V5.58401C205.301 3.37487 207.092 1.58401 209.301 1.58401H223.333C225.543 1.58401 227.333 3.37487 227.333 5.58401V102.128C227.333 104.337 225.543 106.128 223.333 106.128H209.301Z" fill="#0E8187"/>
<path d="M264.88 107.568C258.448 107.568 252.688 105.984 247.6 102.816C242.608 99.648 238.624 95.328 235.648 89.856C232.768 84.384 231.328 78.144 231.328 71.136C231.328 64.128 232.768 57.888 235.648 52.416C238.624 46.944 242.608 42.624 247.6 39.456C252.688 36.288 258.448 34.704 264.88 34.704C269.584 34.704 273.808 35.616 277.552 37.44C281.392 39.264 284.512 41.808 286.912 45.072C289.312 48.24 290.656 51.888 290.944 56.016V86.256C290.656 90.384 289.312 94.08 286.912 97.344C284.608 100.512 281.536 103.008 277.696 104.832C273.856 106.656 269.584 107.568 264.88 107.568ZM269.344 87.696C274.048 87.696 277.84 86.16 280.72 83.088C283.6 79.92 285.04 75.936 285.04 71.136C285.04 67.872 284.368 64.992 283.024 62.496C281.776 60 279.952 58.08 277.552 56.736C275.248 55.296 272.56 54.576 269.488 54.576C266.416 54.576 263.68 55.296 261.28 56.736C258.976 58.08 257.104 60 255.664 62.496C254.32 64.992 253.648 67.872 253.648 71.136C253.648 74.304 254.32 77.136 255.664 79.632C257.008 82.128 258.88 84.096 261.28 85.536C263.68 86.976 266.368 87.696 269.344 87.696ZM288.176 106.128C285.967 106.128 284.176 104.337 284.176 102.128V87.6502C284.176 87.3933 284.201 87.1371 284.25 86.8849L287.339 71.0373C287.438 70.5318 287.438 70.0122 287.339 69.5067L284.25 53.6591C284.201 53.4069 284.176 53.1507 284.176 52.8938V40.144C284.176 37.9349 285.967 36.144 288.176 36.144H301.776C303.985 36.144 305.776 37.9349 305.776 40.144V102.128C305.776 104.337 303.985 106.128 301.776 106.128H288.176Z" fill="#0E8187"/>
<path d="M339.577 107.856C335.449 107.856 331.369 107.328 327.337 106.272C323.401 105.216 319.705 103.728 316.249 101.808C314.086 100.51 312.122 99.0932 310.357 97.5569C308.743 96.1515 308.795 93.6965 310.3 92.1744L317.193 85.2016C318.797 83.5796 321.415 83.6555 323.219 85.0512C324.779 86.2582 326.488 87.2838 328.345 88.128C331.513 89.472 334.969 90.144 338.713 90.144C341.305 90.144 343.273 89.76 344.617 88.992C346.057 88.224 346.777 87.168 346.777 85.824C346.777 84.096 345.913 82.8 344.185 81.936C342.553 80.976 340.441 80.16 337.849 79.488C335.257 78.72 332.521 77.904 329.641 77.04C326.761 76.176 324.025 74.976 321.433 73.44C318.841 71.904 316.729 69.792 315.097 67.104C313.465 64.32 312.649 60.816 312.649 56.592C312.649 52.08 313.801 48.192 316.105 44.928C318.409 41.568 321.673 38.928 325.897 37.008C330.121 35.088 335.065 34.128 340.729 34.128C346.681 34.128 352.153 35.184 357.145 37.296C361.058 38.8466 364.404 40.9936 367.182 43.7369C368.616 45.1536 368.466 47.4434 367.048 48.8771L360.065 55.9411C358.417 57.608 355.721 57.457 353.866 56.0237C352.503 54.9704 351.052 54.1518 349.513 53.568C346.825 52.512 344.185 51.984 341.593 51.984C339.097 51.984 337.225 52.368 335.977 53.136C334.729 53.808 334.105 54.816 334.105 56.16C334.105 57.6 334.921 58.752 336.553 59.616C338.185 60.48 340.297 61.248 342.889 61.92C345.481 62.592 348.217 63.408 351.097 64.368C353.977 65.328 356.713 66.624 359.305 68.256C361.897 69.888 364.009 72.096 365.641 74.88C367.273 77.568 368.089 81.12 368.089 85.536C368.089 92.352 365.497 97.776 360.313 101.808C355.225 105.84 348.313 107.856 339.577 107.856Z" fill="#0E8187"/>
<path d="M398.33 107.856C394.202 107.856 390.122 107.328 386.09 106.272C382.154 105.216 378.458 103.728 375.002 101.808C372.839 100.51 370.875 99.0932 369.11 97.5569C367.496 96.1515 367.548 93.6965 369.053 92.1744L375.946 85.2016C377.55 83.5796 380.168 83.6555 381.972 85.0512C383.532 86.2582 385.241 87.2838 387.098 88.128C390.266 89.472 393.722 90.144 397.466 90.144C400.058 90.144 402.026 89.76 403.37 88.992C404.81 88.224 405.53 87.168 405.53 85.824C405.53 84.096 404.666 82.8 402.938 81.936C401.306 80.976 399.194 80.16 396.602 79.488C394.01 78.72 391.274 77.904 388.394 77.04C385.514 76.176 382.778 74.976 380.186 73.44C377.594 71.904 375.482 69.792 373.85 67.104C372.218 64.32 371.402 60.816 371.402 56.592C371.402 52.08 372.554 48.192 374.858 44.928C377.162 41.568 380.426 38.928 384.65 37.008C388.874 35.088 393.818 34.128 399.482 34.128C405.434 34.128 410.906 35.184 415.898 37.296C419.812 38.8466 423.157 40.9936 425.935 43.7369C427.369 45.1536 427.219 47.4434 425.801 48.8771L418.818 55.9411C417.17 57.608 414.474 57.457 412.62 56.0237C411.256 54.9704 409.805 54.1518 408.266 53.568C405.578 52.512 402.938 51.984 400.346 51.984C397.85 51.984 395.978 52.368 394.73 53.136C393.482 53.808 392.858 54.816 392.858 56.16C392.858 57.6 393.674 58.752 395.306 59.616C396.938 60.48 399.05 61.248 401.642 61.92C404.234 62.592 406.97 63.408 409.85 64.368C412.73 65.328 415.466 66.624 418.058 68.256C420.65 69.888 422.762 72.096 424.394 74.88C426.026 77.568 426.842 81.12 426.842 85.536C426.842 92.352 424.25 97.776 419.066 101.808C413.978 105.84 407.066 107.856 398.33 107.856Z" fill="#0E8187"/>
<path d="M435.595 106.128C433.386 106.128 431.595 104.337 431.595 102.128V40.144C431.595 37.9349 433.386 36.144 435.595 36.144H449.627C451.836 36.144 453.627 37.9349 453.627 40.144V71.136V102.128C453.627 104.337 451.836 106.128 449.627 106.128H435.595ZM442.683 26.496C439.227 26.496 436.347 25.344 434.043 23.04C431.835 20.64 430.731 17.76 430.731 14.4C430.731 10.944 431.835 8.064 434.043 5.76C436.347 3.456 439.227 2.304 442.683 2.304C446.139 2.304 448.971 3.456 451.179 5.76C453.387 8.064 454.491 10.944 454.491 14.4C454.491 17.76 453.387 20.64 451.179 23.04C448.971 25.344 446.139 26.496 442.683 26.496Z" fill="#0E8187"/>
<path d="M480.63 106.128C478.421 106.128 476.63 104.337 476.63 102.128V30.096C476.63 24.432 477.878 19.344 480.374 14.832C482.966 10.224 486.566 6.624 491.174 4.032C495.782 1.344 501.254 0 507.59 0C512.39 0 516.566 0.816001 520.118 2.448C522.522 3.46032 524.718 4.74369 526.705 6.29809C528.424 7.64229 528.386 10.1645 526.843 11.7072L518.615 19.9352C517.059 21.4909 514.539 21.3818 512.486 20.592C511.334 20.016 509.942 19.728 508.31 19.728C505.334 19.728 502.982 20.592 501.254 22.32C499.526 24.048 498.662 26.4 498.662 29.376V102.128C498.662 104.337 496.871 106.128 494.662 106.128H480.63ZM465.222 54.864C463.013 54.864 461.222 53.0731 461.222 50.864V40.144C461.222 37.9349 463.013 36.144 465.222 36.144H514.822C517.031 36.144 518.822 37.9349 518.822 40.144V50.864C518.822 53.0731 517.031 54.864 514.822 54.864H465.222Z" fill="#0E8187"/>
<path d="M551.718 106.416C550.094 106.416 548.632 105.435 548.016 103.933L522.495 41.6609C521.416 39.029 523.352 36.144 526.196 36.144H541.097C542.825 36.144 544.358 37.2544 544.897 38.8968L560.918 87.7143C561.59 89.7639 560.063 91.872 557.906 91.872C555.74 91.872 554.212 89.747 554.902 87.6933L571.302 38.8703C571.849 37.2414 573.376 36.144 575.094 36.144H589.925C592.793 36.144 594.729 39.0738 593.605 41.7124L566.026 106.416H551.718ZM537.297 135.648C534.375 135.648 532.439 132.617 533.668 129.966L549.456 95.9019C550.677 93.2681 554.208 92.7709 556.109 94.9652L566.026 106.416L554.675 133.208C554.049 134.687 552.599 135.648 550.992 135.648H537.297Z" fill="#0E8187"/>
<rect width="24.0184" height="93" rx="3" transform="matrix(0.974953 0.222411 -0.198887 0.980022 64.7139 19.1279)" fill="url(#paint0_linear_2185_431)"/>
<rect width="24.5119" height="93" rx="3" transform="matrix(-0.872596 -0.488442 0.445756 -0.895155 21.389 115.068)" fill="url(#paint1_linear_2185_431)"/>
<rect width="24" height="93" rx="3" transform="matrix(1 0 0 -1 87.2879 115.128)" fill="url(#paint2_linear_2185_431)"/>
<defs>
<linearGradient id="paint0_linear_2185_431" x1="-65.5518" y1="105.232" x2="55.4052" y2="-1.44332" gradientUnits="userSpaceOnUse">
<stop stop-color="#1D9C9A"/>
<stop offset="0.450842" stop-color="#11899D"/>
<stop offset="1" stop-color="#13396A"/>
</linearGradient>
<linearGradient id="paint1_linear_2185_431" x1="9.4026" y1="101.433" x2="19.6385" y2="-10.4165" gradientUnits="userSpaceOnUse">
<stop stop-color="#113F6B"/>
<stop offset="0.495192" stop-color="#117E96"/>
<stop offset="1" stop-color="#119898"/>
</linearGradient>
<linearGradient id="paint2_linear_2185_431" x1="24" y1="93" x2="-95.888" y2="18.773" gradientUnits="userSpaceOnUse">
<stop stop-color="#13396A"/>
<stop offset="0.495192" stop-color="#1D9C9A"/>
<stop offset="1" stop-color="#7AB947"/>
</linearGradient>
</defs>
</svg>
